# xmcd
#
# Track frame offsets: 
#        150
#        18496
#        36096
#        50300
#        61286
#        77343
#        92441
#        106087
#        126384
#        144766
#        159626
#        174860
#        191533
#        208037
#        221404
#        238913
#        252526
#        264521
#
# Disc length: 3723 seconds
#
# Revision: 3
# Processed by: cddbd v1.4PL0 Copyright (c) Steve Scherf et al.
# Submitted via: ExactAudioCopy v0.95a3
#
DISCID=ee0e8912
DTITLE=Various Artist - Promo Only Country Radio - August 2003
DYEAR=2003
DGENRE=Country
TTITLE0=Montgomery Gentry - Hell Yeah
TTITLE1=Rascal Faltts - I Melt
TTITLE2=Diamond Rio - Wrinkles
TTITLE3=Dwight Yoakam - The Late Great Golden State
TTITLE4=Jo Dee Messina - I wish
TTITLE5=Darryl Worley - Tennessee River Run
TTITLE6=Randy Travis - Pray for the Fish
TTITLE7=Blake Shelton - Playboys of the Southwestern World
TTITLE8=Ryan Tyler - Run Run Run
TTITLE9=Scott Emerick - I Can't Take You Amywhere
TTITLE10=Dusty Drake - Smaller Pieces
TTITLE11=Rebecca Lynn Howard - What A Shame
TTITLE12=Sammy Kershaw - I've Never Been Anywhere
TTITLE13=Jessica Andrews - Good Time
TTITLE14=Craig Morgan - Every Friday Afternoon
TTITLE15=Steve Wariner - I'm Your Man
TTITLE16=Jill King - Hand Me Down Heartache
TTITLE17=Ray Stevens - When The Kids Are Gone
EXTD=
EXTT0=
EXTT1=
EXTT2=
EXTT3=
EXTT4=
EXTT5=
EXTT6=
EXTT7=
EXTT8=
EXTT9=
EXTT10=
EXTT11=
EXTT12=
EXTT13=
EXTT14=
EXTT15=
EXTT16=
EXTT17=
PLAYORDER=
